<?xml version="1.0" encoding="UTF-8"?>
<svg width="48px" height="83px" viewBox="0 0 48 83" version="1.1" xmlns="http://www.w3.org/2000/svg" xmlns:xlink="http://www.w3.org/1999/xlink">
    <g id="Page-1" stroke="none" stroke-width="1" fill="none" fill-rule="evenodd">
        <g id="AA_Icon_Sanitize" fill="#FFF" fill-rule="nonzero">
            <path d="M39.88,27.59 L34.83,27.59 L34.83,18 L29.21,18 L29.21,12.54 L33.29,12.88 L33.29,0 L5.22,0 L5.22,10.53 L18.8,11.67 L18.8,18 L13.17,18 L13.17,27.61 L8.17,27.61 C6.01113333,27.6020288 3.93752327,28.4519982 2.40534787,29.9729213 C0.87317247,31.4938445 0.00794184938,33.5611332 0,35.72 L0,74.63 C0.00550987826,79.1177908 3.64220923,82.7544901 8.13,82.76 L39.88,82.76 C44.363885,82.7489864 47.9945051,79.1138952 48,74.63 L48,35.72 C47.9945051,31.2361048 44.363885,27.6010136 39.88,27.59 Z M9.48,6.59 L9.48,4.26 L29,4.26 L29,8.26 L9.48,6.59 Z M25,12.7 L25,18 L23.06,18 L23.06,12.7 L25,12.7 Z M17.48,22.24 L30.57,22.24 L30.57,27.59 L17.43,27.59 L17.48,22.24 Z M43.75,74.63 C43.75,75.6563878 43.342269,76.6407375 42.6165032,77.3665032 C41.8907375,78.092269 40.9063878,78.5 39.88,78.5 L8.13,78.5 C7.10361218,78.5 6.11926254,78.092269 5.39349676,77.3665032 C4.66773097,76.6407375 4.26,75.6563878 4.26,74.63 L4.26,35.72 C4.26549568,33.5849385 5.99493855,31.8554957 8.13,31.85 L39.88,31.85 C42.0150615,31.8554957 43.7445043,33.5849385 43.75,35.72 L43.75,74.63 Z" id="Shape"></path>
            <path d="M24,39.87 C18.2435925,39.87 13.0541867,43.3381126 10.8522403,48.656727 C8.65029384,53.9753413 9.8695862,60.0967019 13.9414114,64.1656657 C18.0132366,68.2346294 24.1354528,69.4496182 29.4525179,67.2439335 C34.7695865,65.0382487 38.2340453,59.846406 38.2300035,54.09 C38.2189727,46.2371792 31.8528266,39.8755069 24,39.87 Z M24,64.06 C18.4771525,64.06 14,59.5828475 14,54.06 C14,48.5371525 18.4771525,44.06 24,44.06 C29.5228475,44.06 34,48.5371525 34,54.06 C34,59.5828475 29.5228475,64.06 24,64.06 L24,64.06 Z" id="Shape"></path>
            <polygon id="Path" points="26.13 47.9 21.88 47.9 21.88 51.97 17.81 51.97 17.81 56.23 21.88 56.23 21.88 60.29 26.13 60.29 26.13 56.23 30.2 56.23 30.2 51.97 26.13 51.97"></polygon>
        </g>
    </g>
</svg>