<?xml version="1.0" encoding="UTF-8"?>
<svg width="79px" height="79px" viewBox="0 0 79 79" version="1.1" xmlns="http://www.w3.org/2000/svg" xmlns:xlink="http://www.w3.org/1999/xlink">
    <g id="Page-1" stroke="none" stroke-width="1" fill="none" fill-rule="evenodd">
        <g id="AA_Icon_WashHands" fill="#FFF" fill-rule="nonzero">
            <path d="M72.29,39 L58.63,25.31 C57.4370416,24.1155543 55.8181499,23.4443965 54.13,23.4443965 C52.4418501,23.4443965 50.8229584,24.1155543 49.63,25.31 C49.1388695,25.8095665 48.7243789,26.3790699 48.4,27 L39.4,18 C38.2070416,16.8055543 36.5881499,16.1343965 34.9,16.1343965 C33.2118501,16.1343965 31.5929584,16.8055543 30.4,18 C30.1545727,18.2580788 29.9305033,18.5356572 29.73,18.83 C29.5542189,18.2697924 29.3335021,17.7246887 29.07,17.2 L20.17,0 L11.27,17.22 C9.67032778,20.3393827 9.71148078,24.0468939 11.38,27.13 C12.5916398,29.4168656 14.6586832,31.131613 17.13,31.9 C16.4233652,33.509175 16.4233652,35.340825 17.13,36.95 C13.8591142,35.8238349 10.2451375,36.3548899 7.43649373,38.3744101 C4.62784995,40.3939303 2.97381637,43.6507723 3,47.11 C3.00254917,48.2236553 3.17797138,49.3301646 3.52,50.39 C0.202923573,52.9734966 -0.883437701,57.5093785 0.903355193,61.3152715 C2.69014809,65.1211646 6.87392466,67.1828191 10.9805344,66.2810391 C15.0871441,65.3792592 18.0221981,61.7543641 18.05,57.55 C18.05,57.34 18.05,57.13 18.05,56.91 C19.4514135,56.272583 20.6995644,55.3415852 21.71,54.18 L25.27,57.74 C21.6285894,59.7212876 19.6445122,63.7940225 20.3288902,67.8826651 C21.0132681,71.9713078 24.2154678,75.1759371 28.3035902,75.8634158 C32.3917127,76.5508946 36.4659512,74.5699069 38.45,70.93 L39.39,71.86 C48.5385354,80.4894788 62.8893918,80.2843913 71.7875944,71.3970072 C80.685797,62.5096231 80.9083428,48.1590268 72.29,39 Z M15.14,53.41 L12.87,53.91 L13.57,56.13 C13.7234155,56.587958 13.8043906,57.0670607 13.81,57.55 C13.8192834,59.9358068 12.0679004,61.9631346 9.70605615,62.3005542 C7.34421187,62.6379737 5.09521651,61.1821508 4.43607757,58.8891841 C3.77693864,56.5962174 4.90951615,54.1683236 7.09,53.2 L9.2,52.2 L8.08,50.2 C7.55211904,49.2486631 7.27670084,48.1779749 7.28,47.09 C7.28550654,43.5245239 10.1745239,40.6355065 13.74,40.63 C15.1964621,40.6321258 16.6082127,41.1332973 17.74,42.05 C15.6555582,44.5684199 15.8198754,48.2569066 18.12,50.58 L18.72,51.17 C17.8107924,52.2960623 16.5502818,53.0847617 15.14,53.41 Z M15.14,25.1 C14.1352656,23.2615065 14.1053124,21.0449721 15.06,19.18 L20.18,9.28 L25.29,19.18 C26.2499885,21.0437285 26.2199998,23.262893 25.21,25.1 C24.3534958,26.7694478 22.7152897,27.8966538 20.85,28.1 C20.4008886,28.1399934 19.9491114,28.1399934 19.5,28.1 C17.6310247,27.8998603 15.988405,26.7722038 15.13,25.1 L15.14,25.1 Z M30,71.74 C27.2803657,71.7217765 24.9855913,69.7116806 24.6093969,67.0181289 C24.2332025,64.3245773 25.8894285,61.7626657 28.5,61 L35.22,67.72 C34.5697201,70.0731664 32.4412071,71.712366 30,71.74 L30,71.74 Z M69.32,68.85 C61.9000451,76.2699231 49.8699549,76.2699231 42.45,68.85 L21.14,47.58 C20.6041016,47.0441016 20.3948095,46.2630127 20.5909619,45.5309619 C20.7871143,44.7989111 21.3589111,44.2271143 22.0909619,44.0309619 C22.8230127,43.8348095 23.6041016,44.0441016 24.14,44.58 L38.73,59.25 L41.73,56.25 L27.11,41.61 L21.45,36 C20.9141016,35.4641016 20.7048095,34.6830127 20.9009619,33.9509619 C21.0971143,33.2189111 21.6689111,32.6471143 22.4009619,32.4509619 C23.1330127,32.2548095 23.9141016,32.4641016 24.45,33 L44.7,53.27 L47.7,50.27 L27.43,30 C27.3,29.88 27.16,29.78 27.03,29.67 C27.8138528,28.9301084 28.4783945,28.0732881 29,27.13 C29.2142748,26.7282629 29.4046069,26.3142069 29.57,25.89 C29.8038545,26.2875979 30.0786853,26.659625 30.39,27 L50.68,47.29 L53.68,44.29 L33.4,24 C32.8641016,23.4641016 32.6548094,22.6830127 32.8509619,21.9509619 C33.0471143,21.2189111 33.6189111,20.6471143 34.3509619,20.4509619 C35.0830127,20.2548094 35.8641016,20.4641016 36.4,21 L59,43.63 L59,43.63 L61.53,46.16 L64.53,43.16 L51.7,30.33 C51.8325447,29.5905113 52.1605559,28.8999614 52.65,28.33 C53.4869025,27.5222934 54.8130975,27.5222934 55.65,28.33 L69.27,42 C76.6765997,49.4176615 76.6765997,61.4323385 69.27,68.85 L69.32,68.85 Z" id="Shape"></path>
        </g>
    </g>
</svg>