<?xml version="1.0" encoding="UTF-8"?>
<svg width="114px" height="62px" viewBox="0 0 114 62" version="1.1" xmlns="http://www.w3.org/2000/svg" xmlns:xlink="http://www.w3.org/1999/xlink">
    <g id="Page-1" stroke="none" stroke-width="1" fill="none" fill-rule="evenodd">
        <g id="AA_Icon_Mask" fill="#FFF" fill-rule="nonzero">
            <path d="M72.15,5.79 L70.47,7.38 L73.4,10.47 L76.06,8 C77.0130454,8.33262191 77.9984855,8.56389867 79,8.69 L79,11.81 L83.26,11.81 L83.26,8.69 C84.2378546,8.55933572 85.1996152,8.32811105 86.13,8 L88.84,10.78 L91.84,7.78 L90,5.86 C91.3386587,4.88510391 92.5105102,3.69974397 93.47,2.35 L89.93,0 C87.8811035,2.82937779 84.6226807,4.53264425 81.13,4.6 C77.6381149,4.52953724 74.3809935,2.82695103 72.33,0 L70.56,1.18 L68.78,2.35 C69.7158617,3.66640123 70.8531143,4.82727629 72.15,5.79 L72.15,5.79 Z" id="Path"></path>
            <path d="M23.07,5.79 L21.39,7.38 L24.33,10.47 L27,8 C27.9508076,8.35080137 28.9364155,8.59887956 29.94,8.74 L29.94,11.86 L34.2,11.86 L34.2,8.69 C35.174236,8.55742501 36.132487,8.32623857 37.06,8 L39.77,10.78 L42.77,7.78 L41,5.86 C42.3328568,4.87837597 43.5037162,3.69401958 44.47,2.35 L40.86,0 C38.8111035,2.82937779 35.5526807,4.53264425 32.06,4.6 C28.5673193,4.53264425 25.3088965,2.82937779 23.26,0 L21.48,1.18 L19.7,2.35 C20.6392526,3.66356105 21.7760236,4.82394454 23.07,5.79 Z" id="Path"></path>
            <rect id="Rectangle" transform="translate(80.763296, 25.819593) rotate(-75.180000) translate(-80.763296, -25.819593) " x="78.6332958" y="22.9645931" width="4.26" height="5.71"></rect>
            <rect id="Rectangle" transform="translate(71.102424, 23.264719) rotate(-75.180000) translate(-71.102424, -23.264719) " x="68.9724241" y="20.4047189" width="4.26" height="5.72"></rect>
            <rect id="Rectangle" transform="translate(32.635450, 25.764900) rotate(-15.004920) translate(-32.635450, -25.764900) " x="29.7683419" y="23.6258667" width="5.73421615" height="4.27806669"></rect>
            <rect id="Rectangle" transform="translate(42.099026, 23.257763) rotate(-14.820000) translate(-42.099026, -23.257763) " x="39.2390261" y="21.1277627" width="5.72" height="4.26"></rect>
            <rect id="Rectangle" transform="translate(61.428994, 20.699512) rotate(-75.180000) translate(-61.428994, -20.699512) " x="59.2989945" y="17.8445121" width="4.26" height="5.71"></rect>
            <rect id="Rectangle" transform="translate(51.758039, 20.703336) rotate(-14.820000) translate(-51.758039, -20.703336) " x="48.9030394" y="18.5733362" width="5.71" height="4.26"></rect>
            <path d="M112.15,18.44 C110.344207,15.3117761 106.991802,13.4004844 103.38,13.44 C98.71,13.53 92.38,18.32 90,20.31 L60.38,10.77 C57.9200587,9.97010166 55.2699413,9.97010166 52.81,10.77 L23.19,20.34 C20.77,18.34 14.48,13.56 9.81,13.47 L9.64,13.47 C6.0888894,13.4914346 2.81552295,15.3945546 1.04,18.47 C-0.548380813,21.480534 -0.280532726,25.1333608 1.73,27.88 C5.55,33.68 15.37,38.48 20.59,40.73 L20.59,44.73 L21.23,45.36 C21.91,46.03 38.15,61.79 56.59,61.79 C75.03,61.79 91.28,46 92,45.29 L92.64,44.66 L92.64,40.66 C97.86,38.41 107.64,33.61 111.5,27.81 C113.485911,25.0662285 113.73804,21.4316976 112.15,18.44 Z M24.85,35.92 L56.59,31.37 L88.34,35.92 L88.34,40.27 L56.59,45.75 L24.85,40.27 L24.85,35.92 Z M54.12,14.83 C55.7427099,14.2886635 57.4972901,14.2886635 59.12,14.83 L88.39,24.28 L88.39,31.62 L56.9,27.11 L56.59,27.06 L24.85,31.62 L24.85,24.28 L54.12,14.83 Z M5.29,25.51 C4.16029351,24.0857767 3.95753844,22.1362088 4.77,20.51 C5.80151818,18.8042704 7.64664363,17.758573 9.64,17.75 L9.74,17.75 C12.52,17.8 17.57,21.23 20.59,23.75 L20.59,36 C13.08,32.64 7.45,28.8 5.29,25.51 Z M27.42,45 L56.59,50 L85.78,45 C80.37,49.39 68.78,57.42 56.59,57.42 C44.4,57.42 32.84,49.43 27.42,45 Z M107.91,25.47 C105.74,28.8 100.12,32.64 92.6,36 L92.6,23.72 C95.6,21.21 100.67,17.78 103.45,17.72 L103.55,17.72 C105.543356,17.728573 107.388482,18.7742704 108.42,20.48 C109.245622,22.112625 109.04652,24.0763198 107.91,25.51 L107.91,25.47 Z" id="Shape"></path>
        </g>
    </g>
</svg>