<?xml version="1.0" encoding="UTF-8"?>
<svg width="76px" height="76px" viewBox="0 0 76 76" version="1.1" xmlns="http://www.w3.org/2000/svg" xmlns:xlink="http://www.w3.org/1999/xlink">
    <g id="Page-1" stroke="none" stroke-width="1" fill="none" fill-rule="evenodd">
        <g id="AA_Icon_SocialDistance" fill="#FFF" fill-rule="nonzero">
            <path d="M20.91,8.74 L18.76,5.06 C15.2556129,7.10350193 12.1021311,9.69651486 9.42,12.74 L12.62,15.55 C15.0023157,12.8522575 17.8010431,10.5531822 20.91,8.74 L20.91,8.74 Z" id="Path"></path>
            <path d="M3,52.52 C4.6051526,56.2445509 6.7962091,59.6881219 9.49,62.72 L12.67,59.89 C10.2832725,57.2176307 8.3418211,54.1788372 6.92,50.89 L3,52.52 Z" id="Path"></path>
            <path d="M9.39,19.86 L5.79,17.59 C3.62027006,21.0213914 2.02592305,24.7843206 1.07,28.73 L5.21,29.73 C6.0581876,26.234865 7.47000538,22.9012187 9.39,19.86 L9.39,19.86 Z" id="Path"></path>
            <path d="M4.26,37.67 C4.26,36.79 4.26,35.91 4.36,35.05 L0.12,34.72 C0.04,35.72 -9.20372144e-06,36.72 -9.20372144e-06,37.72 C-0.00213513257,40.7833259 0.367227792,43.8356068 1.1,46.81 L5.24,45.81 C4.58197792,43.1468987 4.2528573,40.4131825 4.26,37.67 L4.26,37.67 Z" id="Path"></path>
            <path d="M70.71,32.17 L74.91,31.48 C74.2397356,27.46614 72.9190522,23.5885325 71,20 L67.23,22 C68.9345562,25.1785374 70.1099485,28.61352 70.71,32.17 L70.71,32.17 Z" id="Path"></path>
            <path d="M36.26,4.26 L36.07,0 C32.01767,0.170282626 28.0194771,0.994234551 24.23,2.44 L25.75,6.44 C29.1124981,5.15011833 32.6618751,4.41390121 36.26,4.26 L36.26,4.26 Z" id="Path"></path>
            <path d="M53.76,3.54 C50.0892587,1.80934927 46.1611862,0.68800784 42.13,0.22 L41.64,4.45 C45.2311399,4.86158502 48.7307199,5.85808705 52,7.4 L53.76,3.54 Z" id="Path"></path>
            <path d="M71.16,37.53 L71.16,37.67 C71.1623732,41.2689226 70.5849768,44.8447288 69.45,48.26 L73.45,49.61 C74.7317366,45.759808 75.3834552,41.7279324 75.3800137,37.67 L75.3800137,37.53 L71.16,37.53 Z" id="Path"></path>
            <path d="M13.89,66.91 C17.0385357,69.4596998 20.5771839,71.4856433 24.37,72.91 L25.88,68.91 C22.511766,67.6418802 19.3736618,65.8313056 16.59,63.55 L13.89,66.91 Z" id="Path"></path>
            <path d="M60.89,61.79 L63.89,64.86 C66.820203,62.0509175 69.2754118,58.7851859 71.16,55.19 L67.39,53.19 C65.6975194,56.3860396 63.5029306,59.2896493 60.89,61.79 L60.89,61.79 Z" id="Path"></path>
            <path d="M67.77,14.91 C65.3157884,11.6750337 62.3541607,8.85861695 59,6.57 L56.58,10.08 C59.5506674,12.1132995 62.1742938,14.6119913 64.35,17.48 L67.77,14.91 Z" id="Path"></path>
            <path d="M47,69.8 L48.19,73.9 C52.0869483,72.7677989 55.7747249,71.0117148 59.11,68.7 L56.68,65.2 C53.7232169,67.2465349 50.4541186,68.800032 47,69.8 Z" id="Path"></path>
            <path d="M37.74,71.12 L37.74,71.12 C35.5036097,71.1213321 33.2726305,70.900244 31.08,70.46 L30.24,74.64 C32.7096693,75.1321177 35.2217772,75.38 37.74,75.38 L37.74,75.38 C39.257347,75.3800581 40.7733553,75.289899 42.28,75.11 L41.77,70.88 C40.4326231,71.0399414 39.0869069,71.1200833 37.74,71.12 Z" id="Path"></path>
            <path d="M57.17,26.21 L43.46,26.21 C43.101289,25.7214903 42.6811679,25.2812035 42.21,24.9 C44.5371229,22.9976279 45.4165644,19.8374043 44.4066694,17.0063916 C43.3967744,14.1753789 40.7157479,12.2852657 37.71,12.2852657 C34.7042521,12.2852657 32.0232256,14.1753789 31.0133306,17.0063916 C30.0034356,19.8374043 30.8828771,22.9976279 33.21,24.9 C32.7376361,25.2906149 32.3145301,25.7372268 31.95,26.23 L18.22,26.23 C17.0436335,26.23 16.09,27.1836335 16.09,28.36 C16.09,29.5363665 17.0436335,30.49 18.22,30.49 L30.6,30.49 L30.6,42.92 C30.600189,44.3802995 31.0506529,45.8050225 31.89,47 L31.89,62.76 C31.89,63.5209757 32.2959757,64.2241463 32.955,64.6046342 C33.6140243,64.9851221 34.4259757,64.9851221 35.085,64.6046342 C35.7440243,64.2241463 36.15,63.5209757 36.15,62.76 L36.15,49.83 C37.1660167,50.0700229 38.2239833,50.0700229 39.24,49.83 L39.24,62.76 C39.24,63.9363665 40.1936335,64.8900001 41.37,64.8900001 C42.5463665,64.8900001 43.5,63.9363665 43.5,62.76 L43.5,47 C44.3354354,45.8106107 44.7857085,44.393472 44.79,42.94 L44.79,30.47 L57.17,30.47 C58.3463665,30.47 59.3,29.5163665 59.3,28.34 C59.3,27.1636335 58.3463665,26.21 57.17,26.21 Z M37.71,16.6 C39.2840115,16.6 40.56,17.8759885 40.56,19.45 C40.56,21.0240115 39.2840115,22.3 37.71,22.3 C36.1359885,22.3 34.86,21.0240115 34.86,19.45 C34.86,17.8759885 36.1359885,16.6 37.71,16.6 Z M34.86,42.92 L34.86,30.32 C34.7974316,29.2669707 35.3236793,28.2660212 36.2266255,27.7206098 C37.1295717,27.1751983 38.2604283,27.1751983 39.1633745,27.7206098 C40.0663207,28.2660212 40.5925684,29.2669707 40.53,30.32 L40.53,42.92 C40.4408488,44.4204177 39.198064,45.5915512 37.695,45.5915512 C36.191936,45.5915512 34.9491512,44.4204177 34.86,42.92 L34.86,42.92 Z" id="Shape"></path>
        </g>
    </g>
</svg>