<?xml version="1.0" encoding="UTF-8"?>
<svg width="70px" height="80px" viewBox="0 0 70 80" version="1.1" xmlns="http://www.w3.org/2000/svg" xmlns:xlink="http://www.w3.org/1999/xlink">
    <g id="Page-1" stroke="none" stroke-width="1" fill="none" fill-rule="evenodd">
        <g id="Group" transform="translate(0.000000, 2.000000)">
            <g id="AA_Icon_CoverNose" fill="#FFF" fill-rule="nonzero">
                <path d="M69.56,3.12 L66,0.77 C64.1431686,3.35531546 61.1820495,4.92100722 58,5 C54.7984458,4.94204336 51.8115569,3.37818836 49.94,0.78 L46.33,3.12 C47.1638237,4.31369205 48.1755533,5.37263568 49.33,6.26 L47.93,7.61 L50.86,10.7 L53.27,8.42 C54.0969533,8.71870668 54.9509619,8.93639516 55.82,9.07 L55.82,11.83 L60.08,11.83 L60.08,9.07 C60.9218177,8.9406078 61.7490485,8.72961372 62.55,8.44 L65,11 L68,8 L66.44,6.32 C67.637855,5.41953845 68.6901476,4.34026408 69.56,3.12 Z" id="Path"></path>
                <path d="M3.74,6.25 L2.31,7.61 L5.24,10.7 L7.65,8.42 C8.4738852,8.71754737 9.32446303,8.93521493 10.19,9.07 L10.19,11.83 L14.45,11.83 L14.45,9.07 C15.2953725,8.94206465 16.126062,8.73104273 16.93,8.44 L19.38,11 L22.44,8 L20.82,6.32 C22.017855,5.41953845 23.0701476,4.34026408 23.94,3.12 L20.38,0.78 C18.502119,3.37088572 15.5191553,4.9326856 12.32,5 C9.1397283,4.92334482 6.17894842,3.36153344 4.32,0.78 L2.49,2 L0.71,3.12 C1.5516281,4.31410454 2.57384306,5.37005596 3.74,6.25 Z" id="Path"></path>
            </g>
            <g id="touch" transform="translate(40.000000, 42.000000) rotate(28.000000) translate(-40.000000, -42.000000) translate(14.000000, 11.000000)" fill="#FFF" fill-rule="nonzero">
                <path d="M42.7697856,24.6963828 C41.1705709,21.662883 37.3614612,20.4519533 34.2347129,21.9469548 C32.7810833,19.1894718 29.456517,17.8867154 26.43479,18.900567 L26.43479,6.27199287 C26.43479,2.90609148 23.6358863,0.0938347149 20.1946295,0.00254504233 C16.5888947,-0.0962625289 13.6010635,2.69451433 13.6010635,6.18661021 L13.6010635,37.9537813 L11.0944417,35.4170043 C8.68839572,32.9827939 4.65979688,32.8114916 2.11316689,35.036273 C-0.574047403,37.3834899 -0.707963548,41.3803634 1.76642957,43.8924386 L16.1726987,58.7420351 C18.1814414,60.8121612 21.0186862,62 23.9559516,62 L41.3311591,62 C47.2140247,62 52,57.3748391 52,51.6896447 L52,30.2441058 C52,25.6758666 47.0139839,22.6670686 42.7697856,24.6963828 Z M47.7324636,51.6896447 C47.7324636,55.1006539 44.8607673,57.8758579 41.3311591,57.8758579 L23.9559516,57.8758579 C22.1933701,57.8758579 20.4913566,57.163262 19.286111,55.9206494 C19.2344338,55.8680236 4.91151495,41.1043467 4.85983765,41.051721 C4.03466952,40.2161525 4.07412204,38.8827874 4.97430549,38.0955487 C5.82281178,37.3550289 7.18364462,37.4312826 8.00770148,38.26524 L14.1911838,44.5228739 C15.5170095,45.8653679 17.8680442,44.9546199 17.8680442,43.0992931 L17.8680442,6.18661021 C17.8680442,5.02776917 18.8626913,4.09231929 20.0784948,4.12507612 C21.2303962,4.15568495 22.1672537,5.11852188 22.1672537,6.27199287 C22.1672537,28.9622923 22.1272455,18.677176 22.1272455,30.9314628 C22.1272455,32.0736569 23.0896639,33.0042738 24.2810178,32.9924599 C25.4707048,33.0042738 26.43479,32.0741939 26.43479,30.9314628 L26.43479,24.3532414 C26.6248288,23.4027555 27.4905607,22.6831786 28.5285501,22.6831786 C29.7049009,22.6831786 30.6623182,23.6084256 30.6623182,24.7452497 L30.6623182,30.9314628 C30.6623182,32.0704348 31.6175129,32.9935339 32.7960864,32.9935339 C33.97466,32.9935339 34.9298546,32.0704348 34.9298546,30.9314628 L34.9298546,27.4946777 C34.9298546,26.3578537 35.887272,25.4326067 37.0636228,25.4326067 C38.2399736,25.4326067 39.1973909,26.3578537 39.1973909,27.4946777 L39.1973909,30.9314628 C39.1973909,32.0704348 40.1525856,32.9935339 41.3311591,32.9935339 C42.5097327,32.9935339 43.4649273,32.0704348 43.4649273,30.9314628 L43.4649273,30.2441058 C43.4649273,29.1072818 44.4223447,28.1820348 45.5986955,28.1820348 C46.7750463,28.1820348 47.7324636,29.1072818 47.7324636,30.2441058 L47.7324636,51.6896447 Z" id="Shape"></path>
            </g>
            <path d="M35,0.78 C26.6588542,18.0523177 22.9721875,28.6930339 23.94,32.7021484 C24.1579981,33.6051948 26.8072299,33.6051948 31.8876953,32.7021484" id="Path-2" stroke="#FFF" stroke-width="4" stroke-linecap="square" stroke-linejoin="round"></path>
        </g>
    </g>
</svg>