<?xml version="1.0" encoding="UTF-8"?>
<svg width="100px" height="69px" viewBox="0 0 100 69" version="1.1" xmlns="http://www.w3.org/2000/svg" xmlns:xlink="http://www.w3.org/1999/xlink">
    <g id="Page-1" stroke="none" stroke-width="1" fill="none" fill-rule="evenodd">
        <g id="AA_Icon_Home" fill="#FFF" fill-rule="nonzero">
            <path d="M97.51,20.19 C94.7798632,14.9710084 89.6100136,11.4730942 83.75,10.88 C82.4197718,10.7513107 81.0802282,10.7513107 79.75,10.88 C73.8949356,11.4798071 68.7310089,14.9762549 66,20.19 C65.73,20.7 65.5,21.19 65.27,21.76 L35.45,0 L0,25.9 L0,41.18 L8.49,35 L8.49,68.9 L62.41,68.9 L62.41,35 L65.32,37.13 C65.47,37.47 65.6,37.81 65.76,38.13 L81.74,69 L97.74,38.06 C100.623193,32.431815 100.537092,25.7421153 97.51,20.19 Z M39.7,64.61 L31.21,64.61 L31.21,42.61 L39.7,42.61 L39.7,64.61 Z M58.15,64.61 L44,64.61 L44,38.33 L27,38.33 L27,64.61 L12.75,64.61 L12.75,31.86 L35.45,15.28 L58.15,31.86 L58.15,64.61 Z M35.45,10 L4.26,32.79 L4.26,28.06 L35.45,5.27 L64,26.1 C63.7385556,27.6050329 63.6613207,29.1362986 63.77,30.66 L35.45,10 Z M93.94,36.15 L81.74,59.76 L69.55,36.15 C67.2988414,31.7644367 67.3624861,26.5493196 69.72,22.22 C71.7847106,18.2483769 75.7075073,15.5805745 80.16,15.12 C80.68,15.12 81.16,15.04 81.74,15.04 C82.32,15.04 82.8,15.04 83.32,15.12 C87.7748922,15.5808712 91.7005949,18.248095 93.77,22.22 C96.1275139,26.5493196 96.1911586,31.7644367 93.94,36.15 L93.94,36.15 Z" id="Shape"></path>
            <path d="M81.64,19.66 C77.8169222,19.66 74.3704784,21.9635042 72.9083858,25.4959551 C71.4462932,29.0284059 72.2566296,33.0938028 74.9613846,35.7956956 C77.6661395,38.4975883 81.7323921,39.30362 85.2632929,37.8377882 C88.7941938,36.3719564 91.0940456,32.9230756 91.0900053,29.1 C91.0844813,23.8848148 86.8551881,19.66 81.64,19.66 Z M81.64,34.29 C78.7736421,34.29 76.45,31.9663579 76.45,29.1 C76.45,26.2336421 78.7736421,23.91 81.64,23.91 C84.5063579,23.91 86.83,26.2336421 86.83,29.1 C86.83,31.9663579 84.5063579,34.29 81.64,34.29 Z" id="Shape"></path>
        </g>
    </g>
</svg>