<?xml version="1.0" encoding="UTF-8"?>
<svg width="73px" height="76px" viewBox="0 0 73 76" version="1.1" xmlns="http://www.w3.org/2000/svg" xmlns:xlink="http://www.w3.org/1999/xlink">
    <g id="Page-1" stroke="none" stroke-width="1" fill="none" fill-rule="evenodd">
        <g id="AA_Icon_CoverNose" fill="#FFF" fill-rule="nonzero">
            <path d="M72.56,4.12 L69,1.77 C67.1431686,4.35531546 64.1820495,5.92100722 61,6 C57.7984458,5.94204336 54.8115569,4.37818836 52.94,1.78 L49.33,4.12 C50.1638237,5.31369205 51.1755533,6.37263568 52.33,7.26 L50.93,8.61 L53.86,11.7 L56.27,9.42 C57.0969533,9.71870668 57.9509619,9.93639516 58.82,10.07 L58.82,12.83 L63.08,12.83 L63.08,10.07 C63.9218177,9.9406078 64.7490485,9.72961372 65.55,9.44 L68,12 L71,9 L69.44,7.32 C70.637855,6.41953845 71.6901476,5.34026408 72.56,4.12 Z" id="Path"></path>
            <path d="M6.74,7.25 L5.31,8.61 L8.24,11.7 L10.65,9.42 C11.4738852,9.71754737 12.324463,9.93521493 13.19,10.07 L13.19,12.83 L17.45,12.83 L17.45,10.07 C18.2953725,9.94206465 19.126062,9.73104273 19.93,9.44 L22.38,12 L25.44,9 L23.82,7.32 C25.017855,6.41953845 26.0701476,5.34026408 26.94,4.12 L23.38,1.78 C21.502119,4.37088572 18.5191553,5.9326856 15.32,6 C12.1397283,5.92334482 9.17894842,4.36153344 7.32,1.78 L5.49,3 L3.71,4.12 C4.5516281,5.31410454 5.57384306,6.37005596 6.74,7.25 Z" id="Path"></path>
            <path d="M48,23.7599842 C46.7160437,23.755956 45.5564504,24.5268156 45.0632316,25.7122672 C44.5700129,26.8977188 44.8405885,28.263614 45.7484872,29.1715128 C46.656386,30.0794115 48.0222812,30.3499871 49.2077328,29.8567684 C50.3931844,29.3635496 51.164044,28.2039563 51.1600158,26.92 C51.1600158,25.1747802 49.7452198,23.7599842 48,23.7599842 L48,23.7599842 Z" id="Path"></path>
            <path d="M34.34,21.5 L40.84,1.31 L36.79,0 L31.45,16.57 C29.9227535,15.3436933 27.970665,14.7747977 26.0237217,14.9886238 C24.0767784,15.2024499 22.2946908,16.1814575 21.07,17.71 L1.25,42.45 C-0.5422516,44.7002217 -0.388224311,47.9305162 1.61,50 L16.66,65.47 L18.06,72.08 C18.3238303,73.3438491 19.174435,74.4061763 20.35,74.94 C20.8768549,75.1697039 21.4452491,75.2888285 22.02,75.2900597 C22.7193039,75.293777 23.4078966,75.1181859 24.02,74.78 L33.6,69.39 C35.4938219,68.3217164 36.5410781,66.2034027 36.24,64.05 L35.48,58.78 L41.09,56.12 C43.6382417,54.9093482 44.8697051,51.9770875 43.95,49.31 L39.84,37.41 L51.11,37.41 L51.11,33.15 L38.36,33.15 L34.34,21.5 Z M39.25,52.27 L34.82,54.38 L33.1,42.86 C33.0141335,42.0843013 32.5109178,41.4176755 31.7884402,41.1225352 C31.0659627,40.827395 30.2399262,40.9510061 29.6354943,41.44471 C29.0310624,41.938414 28.7450331,42.7231453 28.89,43.49 L31,57.65 L32,64.65 C32.0526432,65.0540714 31.8548431,65.4496717 31.5,65.65 L22.16,70.89 L20.76,64.3 L24.5,33.13 C24.6408326,31.9619178 23.8080822,30.9008327 22.64,30.7600001 C21.4719178,30.6191675 20.4108327,31.4519178 20.27,32.62 L17,59.75 L4.67,47 C4.15918872,46.4746705 4.12057024,45.6508096 4.58,45.08 L24.4,20.37 C25.1081638,19.4841201 26.2424201,19.0539788 27.3599278,19.2475136 C28.4774355,19.4410485 29.4009849,20.2275696 29.77,21.3 L39.91,50.7 C40.1205842,51.3150013 39.8367496,51.9901836 39.25,52.27 L39.25,52.27 Z" id="Shape"></path>
        </g>
    </g>
</svg>