<?xml version="1.0" encoding="UTF-8"?>
<svg width="260px" height="178px" viewBox="0 0 260 178" version="1.1" xmlns="http://www.w3.org/2000/svg" xmlns:xlink="http://www.w3.org/1999/xlink">
    <!-- Generator: Sketch 62 (91390) - https://sketch.com -->
    <title>Group 3</title>
    <desc>Created with Sketch.</desc>
    <g id="Page-1" stroke="none" stroke-width="1" fill="none" fill-rule="evenodd">
        <g id="Group-3" transform="translate(-3.000000, 0.000000)">
            <g id="Group" transform="translate(46.000000, 0.000000)">
                <polyline id="Fill-11" fill="#311B92" points="111.405418 30 114 34.1101557 7.59458207 100 5 95.8898443 111.405418 30"></polyline>
                <polyline id="Fill-12" fill="#311B92" points="94 117.453025 89.8898443 120 24 15.5469751 28.1101557 13 94 117.453025"></polyline>
                <polyline id="Fill-13" fill="#311B92" points="68.3825689 18 72 18.8480233 50.6174311 113 47 112.151977 68.3825689 18"></polyline>
                <polyline id="Fill-14" fill="#311B92" points="107 74.3840737 106.151977 78 12 56.6159263 12.8464953 53 107 74.3840737"></polyline>
                <path d="M35.174076,5.63877738 C38.6861083,11.2588711 36.9797153,18.6605554 31.3611039,22.1741145 C25.7408918,25.6860728 18.3390517,23.9797157 14.8270194,18.3612226 C11.3133863,12.7427296 13.0197794,5.33944456 18.6399915,1.82588551 C24.2586029,-1.68607283 31.6620438,0.0202843203 35.174076,5.63877738" id="Fill-15" fill="#7465B8"></path>
                <path d="M102.172681,112.638482 C105.687867,118.258666 103.978296,125.66207 98.3597605,129.174085 C92.7428257,132.6861 85.3394849,130.979715 81.8258993,125.361132 C78.3139144,119.742549 80.0202845,112.339145 85.6388199,108.825529 C91.2573554,105.313515 98.6606963,107.0215 102.172681,112.638482" id="Fill-16" fill="#7465B8"></path>
                <path d="M123.17336,26.6393368 C126.686871,32.25768 124.978936,39.6607676 119.36212,43.174233 C113.742102,46.6860977 106.340518,44.979786 102.825406,39.3598421 C99.3134946,33.7430996 101.021429,26.3400119 106.639847,22.8265466 C112.258264,19.3130812 119.661449,21.0209935 123.17336,26.6393368" id="Fill-17" fill="#7465B8"></path>
                <path d="M77.9346499,10.2891851 C79.9836364,13.5672433 78.9885826,17.8859783 75.7090267,19.9349486 C72.4324147,21.983919 68.1136457,20.9874011 66.0661312,17.7108149 C64.0156728,14.4327567 65.0121985,10.1140217 68.2888105,8.06505136 C71.5668945,6.016081 75.8856634,7.01259891 77.9346499,10.2891851" id="Fill-18" fill="#7465B8"></path>
                <path d="M54.9356684,113.289373 C56.9831612,116.567265 55.988118,120.885781 52.7100688,122.934648 C49.4320195,124.983515 45.1147683,123.988519 43.0643316,120.710627 C41.0168388,117.432735 42.011882,113.114219 45.2899312,111.065352 C48.5665085,109.016485 52.8852317,110.011481 54.9356684,113.289373" id="Fill-19" fill="#7465B8"></path>
                <path d="M15.9350079,51.2887954 C17.9839877,54.5668644 16.9874652,58.8856135 13.709392,60.9345906 C10.4327907,62.9835677 6.114036,61.9885185 4.06505624,58.7104495 C2.01607649,55.4323806 3.01259897,51.1151034 6.28920022,49.0661263 C9.56727343,47.0156773 13.8860282,48.0121985 15.9350079,51.2887954" id="Fill-20" fill="#7465B8"></path>
                <path d="M116.934926,75.2894715 C118.98394,78.5674617 117.987401,82.8846351 114.710745,84.9350349 C111.432617,86.9839628 107.115262,85.9874655 105.064776,82.7094753 C103.017234,79.4314851 104.010829,75.1143117 107.288957,73.0653838 C110.567085,71.016456 114.885912,72.0114813 116.934926,75.2894715" id="Fill-21" fill="#7465B8"></path>
                <path d="M15.7070374,92.9940023 C18.193897,96.974637 16.9858288,102.21672 13.0065648,104.706421 C9.02585749,107.194679 3.78223539,105.985189 1.29248914,102.005998 C-1.19437044,98.025363 0.0151410673,92.7818365 3.9958484,90.293579 C7.97366908,87.8053214 13.2187345,89.0148109 15.7070374,92.9940023" id="Fill-22" fill="#7465B8"></path>
                <path d="M93.1408693,47.0940499 C104.411222,65.1200161 98.9334526,88.8710464 80.9061101,100.141498 C62.8803033,111.410415 39.1294831,105.934133 27.8591307,87.9066311 C16.5887784,69.8806649 22.0665474,46.1296346 40.0938899,34.8591826 C58.1196967,23.5887305 81.8689812,29.066548 93.1408693,47.0940499" id="Fill-23" fill="#311B92"></path>
                <path d="M84.5114791,50.863786 C93.145403,64.6762278 88.9493343,82.8744947 75.1368926,91.5114791 C61.3244508,100.145403 43.1261839,95.9493343 34.4891994,82.1368926 C25.8537453,68.3244508 30.0513442,50.1261839 43.863786,41.4891994 C57.6777581,32.8537453 75.8744947,37.0513442 84.5114791,50.863786" id="Fill-24" fill="#7465B8"></path>
                <path d="M76.8807712,55.6348692 C82.8803138,65.2330605 79.9654634,77.879171 70.3671132,83.8801444 C60.767233,89.8811178 48.1224433,86.9647855 42.1198405,77.3665942 C36.1187678,67.7668728 39.0351484,55.1207623 48.6350286,49.1197889 C58.2333787,43.1188155 70.8796985,46.0351478 76.8807712,55.6348692" id="Fill-25" fill="#311B92"></path>
                <path d="M53.1628044,60.5858608 C54.7727475,63.1604036 53.9911933,66.5531212 51.4152843,68.1631253 C48.8408389,69.7731293 45.4482497,68.9900819 43.8368431,66.4155391 C42.2268999,63.8409962 43.0099177,60.4482786 45.5843631,58.8368109 C48.1602721,57.2268069 51.5543249,58.0098543 53.1628044,60.5858608" id="Fill-26" fill="#FFFFFF"></path>
                <path d="M72.7822441,60.9938168 C75.1247873,64.9748496 73.9859509,70.218049 70.2393233,72.7056202 C66.4941372,75.194723 61.5582184,73.9861678 59.2171167,70.005135 C56.876015,66.0256339 58.0134099,60.7824345 61.7600375,58.2933316 C65.5052236,55.8057605 70.4411424,57.0143157 72.7822441,60.9938168" id="Fill-27" fill="#FFFFFF"></path>
                <path d="M58.3899758,73.8792998 C59.5632021,75.7515409 58.9926361,78.2193329 57.1204665,79.3908209 C55.2482969,80.5623089 52.7805991,79.9935043 51.6091558,78.1194801 C50.4377125,76.247239 51.0064955,73.7794469 52.8804481,72.6079589 C54.7526177,71.438254 57.2203155,72.0070587 58.3899758,73.8792998" id="Fill-28" fill="#FFFFFF"></path>
            </g>
            <text id="covid" font-family="Futura-Bold, Futura" font-size="80" font-weight="bold" letter-spacing="-6.48148" fill="#311B92">
                <tspan x="0.3237" y="176">covid</tspan>
            </text>
            <text id="cr" font-family="Futura-Bold, Futura" font-size="80" font-weight="bold" letter-spacing="-6.48148" fill="#7465B8">
                <tspan x="194.28148" y="176">cr</tspan>
            </text>
        </g>
    </g>
</svg>