<?xml version="1.0" encoding="UTF-8"?>
<svg width="107px" height="107px" viewBox="0 0 107 107" version="1.1" xmlns="http://www.w3.org/2000/svg" xmlns:xlink="http://www.w3.org/1999/xlink">
    <!-- Generator: Sketch 62 (91390) - https://sketch.com -->
    <title>sad (1)</title>
    <desc>Created with Sketch.</desc>
    <g id="Page-1" stroke="none" stroke-width="1" fill="none" fill-rule="evenodd">
        <g id="sad-(1)" fill="#000000" fill-rule="nonzero">
            <path d="M90.546,15.518 C69.858,-5.172 36.199,-5.172 15.515,15.513 C-5.173,36.198 -5.171,69.858 15.517,90.547 C36.199,111.231 69.858,111.231 90.544,90.543 C111.23,69.858 111.229,36.2 90.546,15.518 Z M84.757,84.758 C67.263,102.252 38.797,102.254 21.302,84.76 C3.804,67.263 3.806,38.794 21.302,21.3 C38.796,3.807 67.261,3.805 84.759,21.302 C102.253,38.796 102.251,67.265 84.757,84.758 Z M77.017,74.001 C77.675,75.522 76.975,77.287 75.455,77.944 C73.934,78.604 72.169,77.902 71.511,76.382 C68.618,69.693 61.781,65.37 54.09,65.37 C46.222,65.37 39.343,69.689 36.568,76.374 C36.089,77.528 34.972,78.225 33.797,78.225 C33.413,78.225 33.024,78.151 32.647,77.995 C31.117,77.359 30.392,75.603 31.027,74.074 C34.737,65.142 43.791,59.371 54.09,59.371 C64.174,59.371 73.174,65.113 77.017,74.001 Z M33.24,38.671 C33.24,35.247 36.017,32.47 39.441,32.47 C42.864,32.47 45.641,35.246 45.641,38.671 C45.641,42.097 42.864,44.873 39.441,44.873 C36.017,44.873 33.24,42.097 33.24,38.671 Z M61.357,38.671 C61.357,35.247 64.136,32.47 67.56,32.47 C70.983,32.47 73.76,35.246 73.76,38.671 C73.76,42.097 70.984,44.873 67.56,44.873 C64.136,44.873 61.357,42.097 61.357,38.671 Z" id="Shape"></path>
        </g>
    </g>
</svg>