<?xml version="1.0" encoding="UTF-8"?>
<svg width="107px" height="107px" viewBox="0 0 107 107" version="1.1" xmlns="http://www.w3.org/2000/svg" xmlns:xlink="http://www.w3.org/1999/xlink">
    <!-- Generator: Sketch 62 (91390) - https://sketch.com -->
    <title>sad (2)</title>
    <desc>Created with Sketch.</desc>
    <g id="Page-1" stroke="none" stroke-width="1" fill="none" fill-rule="evenodd">
        <g id="sad-(2)" fill="#000000" fill-rule="nonzero">
            <path d="M15.515,15.511 C-5.173,36.198 -5.171,69.857 15.517,90.545 C36.199,111.231 69.858,111.231 90.544,90.54 C111.231,69.856 111.229,36.2 90.546,15.517 C69.858,-5.172 36.199,-5.172 15.515,15.511 Z M84.757,84.756 C67.263,102.249 38.797,102.251 21.302,84.759 C3.804,67.261 3.806,38.792 21.302,21.298 C38.796,3.806 67.261,3.804 84.759,21.301 C102.253,38.794 102.251,67.262 84.757,84.756 Z M54.089,59.371 C64.173,59.371 73.173,65.113 77.017,74 C77.675,75.521 76.975,77.287 75.455,77.945 C73.934,78.604 72.169,77.903 71.511,76.382 C68.618,69.694 61.781,65.37 54.09,65.37 C46.222,65.37 39.343,69.69 36.568,76.375 C36.089,77.528 34.972,78.225 33.797,78.227 C33.413,78.227 33.024,78.153 32.647,77.997 C31.117,77.36 30.392,75.604 31.027,74.075 C34.735,65.141 43.788,59.371 54.089,59.371 Z M30.045,33.472 C28.943,33.399 28.109,32.446 28.182,31.344 C28.255,30.243 29.192,29.406 30.307,29.481 C30.394,29.487 38.986,29.979 42.217,25.523 C42.865,24.627 44.117,24.431 45.01,25.078 C45.904,25.726 46.103,26.977 45.455,27.871 C41.738,32.996 34.054,33.503 31.163,33.503 C30.528,33.503 30.125,33.479 30.045,33.472 Z M45.643,40.668 C45.643,41.983 45.231,43.201 44.533,44.205 C43.406,42.656 41.584,41.644 39.522,41.644 C37.414,41.644 35.552,42.701 34.432,44.31 C33.688,43.287 33.243,42.031 33.243,40.667 C33.243,37.243 36.02,34.466 39.443,34.466 C42.866,34.466 45.643,37.244 45.643,40.668 Z M61.559,27.834 C60.912,26.94 61.111,25.689 62.004,25.041 C62.899,24.395 64.15,24.591 64.797,25.486 C68.028,29.942 76.62,29.45 76.707,29.444 C77.823,29.37 78.759,30.207 78.832,31.307 C78.905,32.409 78.071,33.362 76.969,33.435 C76.889,33.441 76.487,33.4650015 75.85,33.4650015 C72.96,33.466 65.276,32.959 61.559,27.834 Z M67.572,34.429 C70.995,34.429 73.772,37.206 73.772,40.63 C73.772,41.993 73.327,43.249 72.583,44.273 C71.463,42.664 69.602,41.607 67.493,41.607 C65.431,41.607 63.609,42.619 62.482,44.168 C61.784,43.164 61.372,41.946 61.372,40.631 C61.372,37.208 64.149,34.429 67.572,34.429 Z" id="Shape"></path>
        </g>
    </g>
</svg>