<?xml version="1.0" encoding="UTF-8"?>
<svg width="107px" height="107px" viewBox="0 0 107 107" version="1.1" xmlns="http://www.w3.org/2000/svg" xmlns:xlink="http://www.w3.org/1999/xlink">
    <g id="Page-1" stroke="none" stroke-width="1" fill="none" fill-rule="evenodd">
        <g id="smile" fill="#000000" fill-rule="nonzero">
            <path d="M90.546,15.518 C69.858,-5.172 36.199,-5.172 15.515,15.513 C-5.173,36.198 -5.171,69.858 15.517,90.547 C36.199,111.231 69.858,111.231 90.544,90.543 C111.23,69.858 111.229,36.2 90.546,15.518 Z M84.757,84.758 C67.263,102.252 38.797,102.254 21.302,84.76 C3.804,67.263 3.806,38.794 21.302,21.3 C38.796,3.807 67.261,3.805 84.759,21.302 C102.253,38.796 102.251,67.265 84.757,84.758 Z M33.24,38.671 C33.24,35.247 36.017,32.47 39.441,32.47 C42.864,32.47 45.641,35.246 45.641,38.671 C45.641,42.097 42.864,44.873 39.441,44.873 C36.017,44.873 33.24,42.097 33.24,38.671 Z M61.357,38.671 C61.357,35.247 64.136,32.47 67.56,32.47 C70.983,32.47 73.76,35.246 73.76,38.671 C73.76,42.097 70.984,44.873 67.56,44.873 C64.136,44.873 61.357,42.097 61.357,38.671 Z M76.017,64.068 C72.174,72.955 63.174,78.697 53.09,78.697 C42.789,78.697 33.736,72.926 30.026,63.994 C29.39,62.465 30.115,60.709 31.646,60.073 C32.022,59.918 32.412,59.844 32.796,59.844 C33.972,59.844 35.088,60.539 35.567,61.694 C38.344,68.38 45.222,72.698 53.09,72.698 C60.78,72.698 67.618,68.377 70.51,61.687 C71.168,60.166 72.934,59.465 74.454,60.124 C75.974,60.783 76.675,62.548 76.017,64.068 Z" id="Shape"></path>
        </g>
    </g>
</svg>